<svg xmlns="http://www.w3.org/2000/svg" viewBox="0 0 844.62 259.49"><defs><style>.cls-1{fill:#9c3;}.cls-2{fill:#fff;}</style></defs><g id="Layer_2" data-name="Layer 2"><g id="Layer_1-2" data-name="Layer 1"><path class="cls-1" d="M567.58,0V259.49h277V0ZM791.1,31.05l.34.67-58.17,79.53-6.46-8.8,52.31-71.4Zm-127.64,0h12l34.39,46.83,34.08-46.83h12l.34.67-46,63.18-.34-.12-.35.12L663.12,31.72ZM586,228.45l-.35-.68,75.74-102.22L592.56,31.72l.34-.67h12L674,125.32l-.13.25.12.25L598,228.45Zm35.72-.61h0l57.8-78,5.64,7.7L633,227.84Zm127.12.61h-12L703,182.25l-34.31,46.2h-12l-.34-.68,46.34-62.45.34.11.34-.11,45.8,62.45Zm36.23-.61h-11.3L629.86,31.67v0H641l144,196.18Zm34.81-.07-.34.68h-12l-69-94,.13-.25-.13-.25,75.93-102.9h12l.34.67L751.24,134.29Z"/><path class="cls-2" d="M92.59,73.37H66.71V186.13H92.59c33.66,0,54.28-25.25,54.28-56.38S126.25,73.37,92.59,73.37Z"/><path class="cls-2" d="M29.41,0A29.41,29.41,0,0,0,0,29.41V230.08a29.41,29.41,0,0,0,29.41,29.41H546.54V0ZM92.59,203.38H45.67V56.11H92.59c47.13,0,75.74,33,75.74,73.64S139.72,203.38,92.59,203.38Zm193.9-16.62c14.94,0,30.72-5.47,40.39-12.62l8.21,15.78c-12.62,9.46-27.14,15.77-48.6,15.77-50.07,0-79.52-34.92-79.52-75.94S236.42,53.8,286.49,53.8c21.46,0,36,6.31,48.6,15.78l-8.21,15.78c-9.67-7.16-25.45-12.63-40.39-12.63-36.82,0-58.06,26.09-58.06,57S249.67,186.76,286.49,186.76Zm170.71,0c14.94,0,30.71-5.47,40.39-12.62l8.21,15.78c-12.63,9.46-27.14,15.77-48.6,15.77-50.07,0-79.53-34.92-79.53-75.94S407.13,53.8,457.2,53.8c21.46,0,36,6.31,48.6,15.78l-8.21,15.78c-9.68-7.16-25.45-12.63-40.39-12.63-36.82,0-58.06,26.09-58.06,57S420.38,186.76,457.2,186.76Z"/></g></g></svg>